<?xml version="1.0" encoding="UTF-8" standalone="no"?>
<!DOCTYPE svg PUBLIC "-//W3C//DTD SVG 1.1//EN"
 "http://www.w3.org/Graphics/SVG/1.1/DTD/svg11.dtd">
<!-- Generated by graphviz version 2.40.1 (20161225.0304)
 -->
<!-- Title: G Pages: 1 -->
<svg width="1081pt" height="1630pt"
 viewBox="0.00 0.00 1080.53 1630.00" xmlns="http://www.w3.org/2000/svg" xmlns:xlink="http://www.w3.org/1999/xlink">
<g id="graph0" class="graph" transform="scale(1 1) rotate(0) translate(4 1626)">
<title>G</title>
<polygon fill="#ffffff" stroke="transparent" points="-4,4 -4,-1626 1076.534,-1626 1076.534,4 -4,4"/>
<g id="clust1" class="cluster">
<title>cluster_Global</title>
<path fill="none" stroke="#c0c0c0" d="M564.049,-98C564.049,-98 1052.534,-98 1052.534,-98 1058.534,-98 1064.534,-104 1064.534,-110 1064.534,-110 1064.534,-1602 1064.534,-1602 1064.534,-1608 1058.534,-1614 1052.534,-1614 1052.534,-1614 564.049,-1614 564.049,-1614 558.049,-1614 552.049,-1608 552.049,-1602 552.049,-1602 552.049,-110 552.049,-110 552.049,-104 558.049,-98 564.049,-98"/>
<text text-anchor="middle" x="808.2915" y="-1601.2" font-family="Times,serif" font-size="11.00" fill="#c0c0c0">Global</text>
</g>
<g id="clust2" class="cluster">
<title>cluster_\App</title>
<path fill="none" stroke="#c0c0c0" d="M572.049,-106C572.049,-106 1044.534,-106 1044.534,-106 1050.534,-106 1056.534,-112 1056.534,-118 1056.534,-118 1056.534,-1332 1056.534,-1332 1056.534,-1338 1050.534,-1344 1044.534,-1344 1044.534,-1344 572.049,-1344 572.049,-1344 566.049,-1344 560.049,-1338 560.049,-1332 560.049,-1332 560.049,-118 560.049,-118 560.049,-112 566.049,-106 572.049,-106"/>
<text text-anchor="middle" x="808.2915" y="-1331.2" font-family="Times,serif" font-size="11.00" fill="#c0c0c0">App</text>
</g>
<g id="clust3" class="cluster">
<title>cluster_\App\Models</title>
<path fill="none" stroke="#c0c0c0" d="M580.049,-624C580.049,-624 1036.534,-624 1036.534,-624 1042.534,-624 1048.534,-630 1048.534,-636 1048.534,-636 1048.534,-1304 1048.534,-1304 1048.534,-1310 1042.534,-1316 1036.534,-1316 1036.534,-1316 580.049,-1316 580.049,-1316 574.049,-1316 568.049,-1310 568.049,-1304 568.049,-1304 568.049,-636 568.049,-636 568.049,-630 574.049,-624 580.049,-624"/>
<text text-anchor="middle" x="808.2915" y="-1303.2" font-family="Times,serif" font-size="11.00" fill="#c0c0c0">Models</text>
</g>
<g id="clust4" class="cluster">
<title>cluster_\App\Models\Map</title>
<path fill="none" stroke="#c0c0c0" d="M891.534,-632C891.534,-632 1028.534,-632 1028.534,-632 1034.534,-632 1040.534,-638 1040.534,-644 1040.534,-644 1040.534,-854 1040.534,-854 1040.534,-860 1034.534,-866 1028.534,-866 1028.534,-866 891.534,-866 891.534,-866 885.534,-866 879.534,-860 879.534,-854 879.534,-854 879.534,-644 879.534,-644 879.534,-638 885.534,-632 891.534,-632"/>
<text text-anchor="middle" x="960.034" y="-853.2" font-family="Times,serif" font-size="11.00" fill="#c0c0c0">Map</text>
</g>
<g id="clust5" class="cluster">
<title>cluster_\App\Models\Base</title>
<path fill="none" stroke="#c0c0c0" d="M588.049,-838C588.049,-838 705.049,-838 705.049,-838 711.049,-838 717.049,-844 717.049,-850 717.049,-850 717.049,-1276 717.049,-1276 717.049,-1282 711.049,-1288 705.049,-1288 705.049,-1288 588.049,-1288 588.049,-1288 582.049,-1288 576.049,-1282 576.049,-1276 576.049,-1276 576.049,-850 576.049,-850 576.049,-844 582.049,-838 588.049,-838"/>
<text text-anchor="middle" x="646.549" y="-1275.2" font-family="Times,serif" font-size="11.00" fill="#c0c0c0">Base</text>
</g>
<g id="clust6" class="cluster">
<title>cluster_\App\Services</title>
<path fill="none" stroke="#c0c0c0" d="M908.534,-490C908.534,-490 1011.534,-490 1011.534,-490 1017.534,-490 1023.534,-496 1023.534,-502 1023.534,-502 1023.534,-604 1023.534,-604 1023.534,-610 1017.534,-616 1011.534,-616 1011.534,-616 908.534,-616 908.534,-616 902.534,-616 896.534,-610 896.534,-604 896.534,-604 896.534,-502 896.534,-502 896.534,-496 902.534,-490 908.534,-490"/>
<text text-anchor="middle" x="960.034" y="-603.2" font-family="Times,serif" font-size="11.00" fill="#c0c0c0">Services</text>
</g>
<g id="clust7" class="cluster">
<title>cluster_\App\Controllers</title>
<path fill="none" stroke="#c0c0c0" d="M915.034,-194C915.034,-194 1005.034,-194 1005.034,-194 1011.034,-194 1017.034,-200 1017.034,-206 1017.034,-206 1017.034,-470 1017.034,-470 1017.034,-476 1011.034,-482 1005.034,-482 1005.034,-482 915.034,-482 915.034,-482 909.034,-482 903.034,-476 903.034,-470 903.034,-470 903.034,-206 903.034,-206 903.034,-200 909.034,-194 915.034,-194"/>
<text text-anchor="middle" x="960.034" y="-469.2" font-family="Times,serif" font-size="11.00" fill="#c0c0c0">Controllers</text>
</g>
<g id="clust8" class="cluster">
<title>cluster_\App\Extensions</title>
<path fill="none" stroke="#c0c0c0" d="M915.034,-114C915.034,-114 1005.034,-114 1005.034,-114 1011.034,-114 1017.034,-120 1017.034,-126 1017.034,-126 1017.034,-174 1017.034,-174 1017.034,-180 1011.034,-186 1005.034,-186 1005.034,-186 915.034,-186 915.034,-186 909.034,-186 903.034,-180 903.034,-174 903.034,-174 903.034,-126 903.034,-126 903.034,-120 909.034,-114 915.034,-114"/>
<text text-anchor="middle" x="960.034" y="-173.2" font-family="Times,serif" font-size="11.00" fill="#c0c0c0">Extensions</text>
</g>
<g id="clust9" class="cluster">
<title>cluster_\Core</title>
<path fill="none" stroke="#c0c0c0" d="M608.549,-1352C608.549,-1352 684.549,-1352 684.549,-1352 690.549,-1352 696.549,-1358 696.549,-1364 696.549,-1364 696.549,-1574 696.549,-1574 696.549,-1580 690.549,-1586 684.549,-1586 684.549,-1586 608.549,-1586 608.549,-1586 602.549,-1586 596.549,-1580 596.549,-1574 596.549,-1574 596.549,-1364 596.549,-1364 596.549,-1358 602.549,-1352 608.549,-1352"/>
<text text-anchor="middle" x="646.549" y="-1573.2" font-family="Times,serif" font-size="11.00" fill="#c0c0c0">Core</text>
</g>
<!-- \\App\\Models\\Map\\UserTableMap -->
<g id="node1" class="node">
<title>\\App\\Models\\Map\\UserTableMap</title>
<polygon fill="none" stroke="#000000" points="1009.034,-838 911.034,-838 911.034,-802 1009.034,-802 1009.034,-838"/>
<text text-anchor="middle" x="960.034" y="-817.2" font-family="Courier,monospace" font-size="11.00" fill="#000000">UserTableMap</text>
</g>
<!-- \\Propel\\Runtime\\Map\\TableMap -->
<g id="node33" class="node">
<title>\\Propel\\Runtime\\Map\\TableMap</title>
<ellipse fill="none" stroke="#000000" cx="646.549" cy="-72" rx="127.2775" ry="18"/>
<text text-anchor="middle" x="646.549" y="-68.3" font-family="Times,serif" font-size="14.00" fill="#c0c0c0">\Propel\Runtime\Map\TableMap</text>
</g>
<!-- \\App\\Models\\Map\\UserTableMap&#45;&gt;\\Propel\\Runtime\\Map\\TableMap -->
<g id="edge1" class="edge">
<title>\\App\\Models\\Map\\UserTableMap&#45;&gt;\\Propel\\Runtime\\Map\\TableMap</title>
<path fill="none" stroke="#000000" d="M910.8008,-811.447C899.3477,-807.4531 888.0338,-801.5943 879.534,-793 776.4981,-688.8179 676.3544,-219.9574 652.0966,-100.0148"/>
<polygon fill="none" stroke="#000000" points="655.5114,-99.2423 650.1096,-90.1279 648.6486,-100.6215 655.5114,-99.2423"/>
</g>
<!-- \\App\\Models\\Map\\CategoryTableMap -->
<g id="node2" class="node">
<title>\\App\\Models\\Map\\CategoryTableMap</title>
<polygon fill="none" stroke="#000000" points="1022.534,-784 897.534,-784 897.534,-748 1022.534,-748 1022.534,-784"/>
<text text-anchor="middle" x="960.034" y="-763.2" font-family="Courier,monospace" font-size="11.00" fill="#000000">CategoryTableMap</text>
</g>
<!-- \\App\\Models\\Map\\CategoryTableMap&#45;&gt;\\Propel\\Runtime\\Map\\TableMap -->
<g id="edge4" class="edge">
<title>\\App\\Models\\Map\\CategoryTableMap&#45;&gt;\\Propel\\Runtime\\Map\\TableMap</title>
<path fill="none" stroke="#000000" d="M897.3329,-751.5445C890.7942,-748.1973 884.6731,-744.0756 879.534,-739 689.8662,-551.6772 654.3193,-201.6926 647.9081,-100.2358"/>
<polygon fill="none" stroke="#000000" points="651.3965,-99.9333 647.3173,-90.1552 644.4085,-100.3429 651.3965,-99.9333"/>
</g>
<!-- \\App\\Models\\Map\\TransactionTableMap -->
<g id="node3" class="node">
<title>\\App\\Models\\Map\\TransactionTableMap</title>
<polygon fill="none" stroke="#000000" points="1032.534,-730 887.534,-730 887.534,-694 1032.534,-694 1032.534,-730"/>
<text text-anchor="middle" x="960.034" y="-709.2" font-family="Courier,monospace" font-size="11.00" fill="#000000">TransactionTableMap</text>
</g>
<!-- \\App\\Models\\Map\\TransactionTableMap&#45;&gt;\\Propel\\Runtime\\Map\\TableMap -->
<g id="edge18" class="edge">
<title>\\App\\Models\\Map\\TransactionTableMap&#45;&gt;\\Propel\\Runtime\\Map\\TableMap</title>
<path fill="none" stroke="#000000" d="M891.1858,-693.9039C886.9818,-691.3215 883.0412,-688.3709 879.534,-685 702.4913,-514.8326 658.3902,-196.2658 648.8911,-100.1555"/>
<polygon fill="none" stroke="#000000" points="652.3623,-99.6842 647.9414,-90.0558 645.3931,-100.3396 652.3623,-99.6842"/>
</g>
<!-- \\App\\Models\\Map\\AccountTableMap -->
<g id="node4" class="node">
<title>\\App\\Models\\Map\\AccountTableMap</title>
<polygon fill="none" stroke="#000000" points="1019.034,-676 901.034,-676 901.034,-640 1019.034,-640 1019.034,-676"/>
<text text-anchor="middle" x="960.034" y="-655.2" font-family="Courier,monospace" font-size="11.00" fill="#000000">AccountTableMap</text>
</g>
<!-- \\App\\Models\\Map\\AccountTableMap&#45;&gt;\\Propel\\Runtime\\Map\\TableMap -->
<g id="edge19" class="edge">
<title>\\App\\Models\\Map\\AccountTableMap&#45;&gt;\\Propel\\Runtime\\Map\\TableMap</title>
<path fill="none" stroke="#000000" d="M907.4267,-639.9734C897.2603,-634.7156 887.3543,-628.1316 879.534,-620 727.1616,-461.5603 667.1755,-188.2627 651.2241,-100.2117"/>
<polygon fill="none" stroke="#000000" points="654.639,-99.4224 649.4545,-90.1827 647.7455,-100.6388 654.639,-99.4224"/>
</g>
<!-- \\App\\Models\\Base\\UserQuery -->
<g id="node5" class="node">
<title>\\App\\Models\\Base\\UserQuery</title>
<polygon fill="none" stroke="#000000" points="688.549,-936 604.549,-936 604.549,-900 688.549,-900 688.549,-936"/>
<text text-anchor="start" x="612.549" y="-921.2" font-family="Courier,monospace" font-size="11.00" fill="#000000">«abstract»</text>
<text text-anchor="start" x="616.049" y="-909.2" font-family="Courier,monospace" font-size="11.00" fill="#000000">UserQuery</text>
</g>
<!-- \\Propel\\Runtime\\ActiveQuery\\ModelCriteria -->
<g id="node34" class="node">
<title>\\Propel\\Runtime\\ActiveQuery\\ModelCriteria</title>
<ellipse fill="none" stroke="#000000" cx="202.782" cy="-945" rx="169.77" ry="18"/>
<text text-anchor="middle" x="202.782" y="-941.3" font-family="Times,serif" font-size="14.00" fill="#c0c0c0">\Propel\Runtime\ActiveQuery\ModelCriteria</text>
</g>
<!-- \\App\\Models\\Base\\UserQuery&#45;&gt;\\Propel\\Runtime\\ActiveQuery\\ModelCriteria -->
<g id="edge2" class="edge">
<title>\\App\\Models\\Base\\UserQuery&#45;&gt;\\Propel\\Runtime\\ActiveQuery\\ModelCriteria</title>
<path fill="none" stroke="#000000" d="M604.4004,-920.5644C548.57,-923.9613 446.9953,-930.1414 359.9704,-935.4362"/>
<polygon fill="none" stroke="#000000" points="359.7459,-931.9433 349.9769,-936.0443 360.1711,-938.9304 359.7459,-931.9433"/>
</g>
<!-- \\App\\Models\\Base\\Category -->
<g id="node6" class="node">
<title>\\App\\Models\\Base\\Category</title>
<polygon fill="none" stroke="#000000" points="688.549,-1152 604.549,-1152 604.549,-1116 688.549,-1116 688.549,-1152"/>
<text text-anchor="start" x="612.549" y="-1137.2" font-family="Courier,monospace" font-size="11.00" fill="#000000">«abstract»</text>
<text text-anchor="start" x="619.049" y="-1125.2" font-family="Courier,monospace" font-size="11.00" fill="#000000">Category</text>
</g>
<!-- \\Propel\\Runtime\\ActiveRecord\\ActiveRecordInterface -->
<g id="node35" class="node">
<title>\\Propel\\Runtime\\ActiveRecord\\ActiveRecordInterface</title>
<ellipse fill="none" stroke="#000000" cx="202.782" cy="-1161" rx="202.5642" ry="18"/>
<text text-anchor="middle" x="202.782" y="-1157.3" font-family="Times,serif" font-size="14.00" fill="#c0c0c0">\Propel\Runtime\ActiveRecord\ActiveRecordInterface</text>
</g>
<!-- \\App\\Models\\Base\\Category&#45;&gt;\\Propel\\Runtime\\ActiveRecord\\ActiveRecordInterface -->
<g id="edge7" class="edge">
<title>\\App\\Models\\Base\\Category&#45;&gt;\\Propel\\Runtime\\ActiveRecord\\ActiveRecordInterface</title>
<path fill="none" stroke="#000000" stroke-dasharray="1,5" d="M604.4004,-1136.5644C552.8937,-1139.6982 462.4534,-1145.2009 380.4224,-1150.1919"/>
<polygon fill="none" stroke="#000000" points="379.9744,-1146.7126 370.2054,-1150.8135 380.3996,-1153.6996 379.9744,-1146.7126"/>
</g>
<!-- \\App\\Models\\Base\\TransactionQuery -->
<g id="node7" class="node">
<title>\\App\\Models\\Base\\TransactionQuery</title>
<polygon fill="none" stroke="#000000" points="709.049,-990 584.049,-990 584.049,-954 709.049,-954 709.049,-990"/>
<text text-anchor="start" x="612.549" y="-975.2" font-family="Courier,monospace" font-size="11.00" fill="#000000">«abstract»</text>
<text text-anchor="start" x="592.049" y="-963.2" font-family="Courier,monospace" font-size="11.00" fill="#000000">TransactionQuery</text>
</g>
<!-- \\App\\Models\\Base\\TransactionQuery&#45;&gt;\\Propel\\Runtime\\ActiveQuery\\ModelCriteria -->
<g id="edge8" class="edge">
<title>\\App\\Models\\Base\\TransactionQuery&#45;&gt;\\Propel\\Runtime\\ActiveQuery\\ModelCriteria</title>
<path fill="none" stroke="#000000" d="M583.9093,-968.1888C526.0609,-964.6692 437.6904,-959.2925 360.6034,-954.6023"/>
<polygon fill="none" stroke="#000000" points="360.4864,-951.0888 350.2923,-953.9749 360.0612,-958.0759 360.4864,-951.0888"/>
</g>
<!-- \\App\\Models\\Base\\User -->
<g id="node8" class="node">
<title>\\App\\Models\\Base\\User</title>
<polygon fill="none" stroke="#000000" points="688.549,-1098 604.549,-1098 604.549,-1062 688.549,-1062 688.549,-1098"/>
<text text-anchor="start" x="612.549" y="-1083.2" font-family="Courier,monospace" font-size="11.00" fill="#000000">«abstract»</text>
<text text-anchor="start" x="632.549" y="-1071.2" font-family="Courier,monospace" font-size="11.00" fill="#000000">User</text>
</g>
<!-- \\App\\Models\\Base\\User&#45;&gt;\\Propel\\Runtime\\ActiveRecord\\ActiveRecordInterface -->
<g id="edge13" class="edge">
<title>\\App\\Models\\Base\\User&#45;&gt;\\Propel\\Runtime\\ActiveRecord\\ActiveRecordInterface</title>
<path fill="none" stroke="#000000" stroke-dasharray="1,5" d="M604.4644,-1086.2984C570.2332,-1091.5238 520.7071,-1099.3166 477.564,-1107 415.8318,-1117.9939 346.5574,-1131.6163 293.0088,-1142.4283"/>
<polygon fill="none" stroke="#000000" points="292.3058,-1138.9996 283.1985,-1144.4132 293.694,-1145.8606 292.3058,-1138.9996"/>
</g>
<!-- \\App\\Models\\Base\\CategoryQuery -->
<g id="node9" class="node">
<title>\\App\\Models\\Base\\CategoryQuery</title>
<polygon fill="none" stroke="#000000" points="698.549,-882 594.549,-882 594.549,-846 698.549,-846 698.549,-882"/>
<text text-anchor="start" x="612.549" y="-867.2" font-family="Courier,monospace" font-size="11.00" fill="#000000">«abstract»</text>
<text text-anchor="start" x="602.549" y="-855.2" font-family="Courier,monospace" font-size="11.00" fill="#000000">CategoryQuery</text>
</g>
<!-- \\App\\Models\\Base\\CategoryQuery&#45;&gt;\\Propel\\Runtime\\ActiveQuery\\ModelCriteria -->
<g id="edge21" class="edge">
<title>\\App\\Models\\Base\\CategoryQuery&#45;&gt;\\Propel\\Runtime\\ActiveQuery\\ModelCriteria</title>
<path fill="none" stroke="#000000" d="M594.3224,-871.8534C560.8891,-877.0022 516.6122,-884.0459 477.564,-891 414.818,-902.1745 344.28,-916.0645 290.3833,-926.9587"/>
<polygon fill="none" stroke="#000000" points="289.6251,-923.5412 280.5189,-928.9568 291.0147,-930.4019 289.6251,-923.5412"/>
</g>
<!-- \\App\\Models\\Base\\AccountQuery -->
<g id="node10" class="node">
<title>\\App\\Models\\Base\\AccountQuery</title>
<polygon fill="none" stroke="#000000" points="695.549,-1044 597.549,-1044 597.549,-1008 695.549,-1008 695.549,-1044"/>
<text text-anchor="start" x="612.549" y="-1029.2" font-family="Courier,monospace" font-size="11.00" fill="#000000">«abstract»</text>
<text text-anchor="start" x="605.549" y="-1017.2" font-family="Courier,monospace" font-size="11.00" fill="#000000">AccountQuery</text>
</g>
<!-- \\App\\Models\\Base\\AccountQuery&#45;&gt;\\Propel\\Runtime\\ActiveQuery\\ModelCriteria -->
<g id="edge23" class="edge">
<title>\\App\\Models\\Base\\AccountQuery&#45;&gt;\\Propel\\Runtime\\ActiveQuery\\ModelCriteria</title>
<path fill="none" stroke="#000000" d="M597.298,-1018.6042C563.5471,-1013.42 517.7822,-1006.1625 477.564,-999 414.818,-987.8255 344.28,-973.9355 290.3833,-963.0413"/>
<polygon fill="none" stroke="#000000" points="291.0147,-959.5981 280.5189,-961.0432 289.6251,-966.4588 291.0147,-959.5981"/>
</g>
<!-- \\App\\Models\\Base\\Transaction -->
<g id="node11" class="node">
<title>\\App\\Models\\Base\\Transaction</title>
<polygon fill="none" stroke="#000000" points="692.049,-1260 601.049,-1260 601.049,-1224 692.049,-1224 692.049,-1260"/>
<text text-anchor="start" x="612.549" y="-1245.2" font-family="Courier,monospace" font-size="11.00" fill="#000000">«abstract»</text>
<text text-anchor="start" x="609.049" y="-1233.2" font-family="Courier,monospace" font-size="11.00" fill="#000000">Transaction</text>
</g>
<!-- \\App\\Models\\Base\\Transaction&#45;&gt;\\Propel\\Runtime\\ActiveRecord\\ActiveRecordInterface -->
<g id="edge24" class="edge">
<title>\\App\\Models\\Base\\Transaction&#45;&gt;\\Propel\\Runtime\\ActiveRecord\\ActiveRecordInterface</title>
<path fill="none" stroke="#000000" stroke-dasharray="1,5" d="M600.9314,-1235.1614C566.8828,-1229.948 519.2447,-1222.4229 477.564,-1215 415.8318,-1204.0061 346.5574,-1190.3837 293.0088,-1179.5717"/>
<polygon fill="none" stroke="#000000" points="293.694,-1176.1394 283.1985,-1177.5868 292.3058,-1183.0004 293.694,-1176.1394"/>
</g>
<!-- \\App\\Models\\Base\\Account -->
<g id="node12" class="node">
<title>\\App\\Models\\Base\\Account</title>
<polygon fill="none" stroke="#000000" points="688.549,-1206 604.549,-1206 604.549,-1170 688.549,-1170 688.549,-1206"/>
<text text-anchor="start" x="612.549" y="-1191.2" font-family="Courier,monospace" font-size="11.00" fill="#000000">«abstract»</text>
<text text-anchor="start" x="622.549" y="-1179.2" font-family="Courier,monospace" font-size="11.00" fill="#000000">Account</text>
</g>
<!-- \\App\\Models\\Base\\Account&#45;&gt;\\Propel\\Runtime\\ActiveRecord\\ActiveRecordInterface -->
<g id="edge26" class="edge">
<title>\\App\\Models\\Base\\Account&#45;&gt;\\Propel\\Runtime\\ActiveRecord\\ActiveRecordInterface</title>
<path fill="none" stroke="#000000" stroke-dasharray="1,5" d="M604.4004,-1185.4356C552.8937,-1182.3018 462.4534,-1176.7991 380.4224,-1171.8081"/>
<polygon fill="none" stroke="#000000" points="380.3996,-1168.3004 370.2054,-1171.1865 379.9744,-1175.2874 380.3996,-1168.3004"/>
</g>
<!-- \\App\\Models\\Category -->
<g id="node13" class="node">
<title>\\App\\Models\\Category</title>
<polygon fill="none" stroke="#000000" points="995.534,-1180 924.534,-1180 924.534,-1144 995.534,-1144 995.534,-1180"/>
<text text-anchor="middle" x="960.034" y="-1159.2" font-family="Courier,monospace" font-size="11.00" fill="#000000">Category</text>
</g>
<!-- \\App\\Models\\Category&#45;&gt;\\App\\Models\\Base\\Category -->
<g id="edge3" class="edge">
<title>\\App\\Models\\Category&#45;&gt;\\App\\Models\\Base\\Category</title>
<path fill="none" stroke="#000000" d="M924.3785,-1158.8153C869.1974,-1153.8866 762.8224,-1144.3854 698.9058,-1138.6764"/>
<polygon fill="none" stroke="#000000" points="698.9138,-1135.1633 688.642,-1137.7597 698.2909,-1142.1355 698.9138,-1135.1633"/>
</g>
<!-- \\App\\Models\\User -->
<g id="node14" class="node">
<title>\\App\\Models\\User</title>
<polygon fill="none" stroke="#000000" points="987.034,-1126 933.034,-1126 933.034,-1090 987.034,-1090 987.034,-1126"/>
<text text-anchor="middle" x="960.034" y="-1105.2" font-family="Courier,monospace" font-size="11.00" fill="#000000">User</text>
</g>
<!-- \\App\\Models\\User&#45;&gt;\\App\\Models\\Base\\User -->
<g id="edge5" class="edge">
<title>\\App\\Models\\User&#45;&gt;\\App\\Models\\Base\\User</title>
<path fill="none" stroke="#000000" d="M932.7627,-1105.5642C880.621,-1100.907 766.0015,-1090.6693 698.7009,-1084.6581"/>
<polygon fill="none" stroke="#000000" points="698.997,-1081.1707 688.7252,-1083.7671 698.3742,-1088.143 698.997,-1081.1707"/>
</g>
<!-- \\App\\Models\\AccountQuery -->
<g id="node15" class="node">
<title>\\App\\Models\\AccountQuery</title>
<polygon fill="none" stroke="#000000" points="1009.034,-1072 911.034,-1072 911.034,-1036 1009.034,-1036 1009.034,-1072"/>
<text text-anchor="middle" x="960.034" y="-1051.2" font-family="Courier,monospace" font-size="11.00" fill="#000000">AccountQuery</text>
</g>
<!-- \\App\\Models\\AccountQuery&#45;&gt;\\App\\Models\\Base\\AccountQuery -->
<g id="edge6" class="edge">
<title>\\App\\Models\\AccountQuery&#45;&gt;\\App\\Models\\Base\\AccountQuery</title>
<path fill="none" stroke="#000000" d="M910.7071,-1049.5942C855.1256,-1044.6297 764.8226,-1036.564 705.5508,-1031.2699"/>
<polygon fill="none" stroke="#000000" points="705.86,-1027.7837 695.5882,-1030.3801 705.2372,-1034.756 705.86,-1027.7837"/>
</g>
<!-- \\App\\Models\\TransactionQuery -->
<g id="node16" class="node">
<title>\\App\\Models\\TransactionQuery</title>
<polygon fill="none" stroke="#000000" points="1022.534,-1018 897.534,-1018 897.534,-982 1022.534,-982 1022.534,-1018"/>
<text text-anchor="middle" x="960.034" y="-997.2" font-family="Courier,monospace" font-size="11.00" fill="#000000">TransactionQuery</text>
</g>
<!-- \\App\\Models\\TransactionQuery&#45;&gt;\\App\\Models\\Base\\TransactionQuery -->
<g id="edge14" class="edge">
<title>\\App\\Models\\TransactionQuery&#45;&gt;\\App\\Models\\Base\\TransactionQuery</title>
<path fill="none" stroke="#000000" d="M897.3491,-994.4011C845.9842,-989.8132 773.2346,-983.3154 719.3068,-978.4986"/>
<polygon fill="none" stroke="#000000" points="719.3971,-974.9928 709.1253,-977.5892 718.7743,-981.9651 719.3971,-974.9928"/>
</g>
<!-- \\App\\Models\\UserQuery -->
<g id="node17" class="node">
<title>\\App\\Models\\UserQuery</title>
<polygon fill="none" stroke="#000000" points="998.534,-964 921.534,-964 921.534,-928 998.534,-928 998.534,-964"/>
<text text-anchor="middle" x="960.034" y="-943.2" font-family="Courier,monospace" font-size="11.00" fill="#000000">UserQuery</text>
</g>
<!-- \\App\\Models\\UserQuery&#45;&gt;\\App\\Models\\Base\\UserQuery -->
<g id="edge15" class="edge">
<title>\\App\\Models\\UserQuery&#45;&gt;\\App\\Models\\Base\\UserQuery</title>
<path fill="none" stroke="#000000" d="M921.2802,-942.5386C865.2616,-937.5351 761.5187,-928.2689 698.7903,-922.6661"/>
<polygon fill="none" stroke="#000000" points="698.9824,-919.1694 688.7106,-921.7658 698.3596,-926.1417 698.9824,-919.1694"/>
</g>
<!-- \\App\\Models\\CategoryQuery -->
<g id="node18" class="node">
<title>\\App\\Models\\CategoryQuery</title>
<polygon fill="none" stroke="#000000" points="1012.034,-910 908.034,-910 908.034,-874 1012.034,-874 1012.034,-910"/>
<text text-anchor="middle" x="960.034" y="-889.2" font-family="Courier,monospace" font-size="11.00" fill="#000000">CategoryQuery</text>
</g>
<!-- \\App\\Models\\CategoryQuery&#45;&gt;\\App\\Models\\Base\\CategoryQuery -->
<g id="edge16" class="edge">
<title>\\App\\Models\\CategoryQuery&#45;&gt;\\App\\Models\\Base\\CategoryQuery</title>
<path fill="none" stroke="#000000" d="M907.9165,-887.3449C853.224,-882.4599 767.2541,-874.7812 708.9762,-869.5759"/>
<polygon fill="none" stroke="#000000" points="709.063,-866.0698 698.7912,-868.6662 708.4401,-873.042 709.063,-866.0698"/>
</g>
<!-- \\App\\Models\\Transaction -->
<g id="node19" class="node">
<title>\\App\\Models\\Transaction</title>
<polygon fill="none" stroke="#000000" points="1005.534,-1288 914.534,-1288 914.534,-1252 1005.534,-1252 1005.534,-1288"/>
<text text-anchor="middle" x="960.034" y="-1267.2" font-family="Courier,monospace" font-size="11.00" fill="#000000">Transaction</text>
</g>
<!-- \\App\\Models\\Transaction&#45;&gt;\\App\\Models\\Base\\Transaction -->
<g id="edge17" class="edge">
<title>\\App\\Models\\Transaction&#45;&gt;\\App\\Models\\Base\\Transaction</title>
<path fill="none" stroke="#000000" d="M914.4506,-1265.9286C858.2664,-1260.9103 762.8235,-1252.3855 702.3224,-1246.9816"/>
<polygon fill="none" stroke="#000000" points="702.4592,-1243.48 692.1874,-1246.0764 701.8364,-1250.4522 702.4592,-1243.48"/>
</g>
<!-- \\App\\Models\\Account -->
<g id="node20" class="node">
<title>\\App\\Models\\Account</title>
<polygon fill="none" stroke="#000000" points="992.034,-1234 928.034,-1234 928.034,-1198 992.034,-1198 992.034,-1234"/>
<text text-anchor="middle" x="960.034" y="-1213.2" font-family="Courier,monospace" font-size="11.00" fill="#000000">Account</text>
</g>
<!-- \\App\\Models\\Account&#45;&gt;\\App\\Models\\Base\\Account -->
<g id="edge25" class="edge">
<title>\\App\\Models\\Account&#45;&gt;\\App\\Models\\Base\\Account</title>
<path fill="none" stroke="#000000" d="M927.9588,-1213.1351C873.8936,-1208.3061 764.1392,-1198.503 698.8211,-1192.6689"/>
<polygon fill="none" stroke="#000000" points="699.0065,-1189.1716 688.7348,-1191.768 698.3837,-1196.1438 699.0065,-1189.1716"/>
</g>
<!-- \\App\\Services\\Sanatize -->
<g id="node21" class="node">
<title>\\App\\Services\\Sanatize</title>
<polygon fill="none" stroke="#000000" points="995.534,-588 924.534,-588 924.534,-552 995.534,-552 995.534,-588"/>
<text text-anchor="middle" x="960.034" y="-567.2" font-family="Courier,monospace" font-size="11.00" fill="#000000">Sanatize</text>
</g>
<!-- \\App\\Services\\Authentication -->
<g id="node22" class="node">
<title>\\App\\Services\\Authentication</title>
<polygon fill="none" stroke="#000000" points="1015.534,-534 904.534,-534 904.534,-498 1015.534,-498 1015.534,-534"/>
<text text-anchor="middle" x="960.034" y="-513.2" font-family="Courier,monospace" font-size="11.00" fill="#000000">Authentication</text>
</g>
<!-- \\App\\Controllers\\Users -->
<g id="node23" class="node">
<title>\\App\\Controllers\\Users</title>
<polygon fill="none" stroke="#000000" points="987.034,-454 933.034,-454 933.034,-418 987.034,-418 987.034,-454"/>
<text text-anchor="middle" x="960.034" y="-433.2" font-family="Courier,monospace" font-size="11.00" fill="#000000">Users</text>
</g>
<!-- \\Core\\Controller -->
<g id="node32" class="node">
<title>\\Core\\Controller</title>
<polygon fill="none" stroke="#000000" points="688.549,-1396 604.549,-1396 604.549,-1360 688.549,-1360 688.549,-1396"/>
<text text-anchor="start" x="612.549" y="-1381.2" font-family="Courier,monospace" font-size="11.00" fill="#000000">«abstract»</text>
<text text-anchor="start" x="612.549" y="-1369.2" font-family="Courier,monospace" font-size="11.00" fill="#000000">Controller</text>
</g>
<!-- \\App\\Controllers\\Users&#45;&gt;\\Core\\Controller -->
<g id="edge9" class="edge">
<title>\\App\\Controllers\\Users&#45;&gt;\\Core\\Controller</title>
<path fill="none" stroke="#000000" d="M932.8083,-445.3781C914.4683,-453.2197 891.5164,-466.3292 879.534,-486 786.0624,-639.4475 915.4441,-1142.6646 815.534,-1292 788.7879,-1331.9775 737.5218,-1354.336 698.4396,-1366.1645"/>
<polygon fill="none" stroke="#000000" points="697.4261,-1362.8141 688.7884,-1368.9492 699.3667,-1369.5397 697.4261,-1362.8141"/>
</g>
<!-- \\App\\Controllers\\Transactions -->
<g id="node24" class="node">
<title>\\App\\Controllers\\Transactions</title>
<polygon fill="none" stroke="#000000" points="1009.034,-400 911.034,-400 911.034,-364 1009.034,-364 1009.034,-400"/>
<text text-anchor="middle" x="960.034" y="-379.2" font-family="Courier,monospace" font-size="11.00" fill="#000000">Transactions</text>
</g>
<!-- \\App\\Controllers\\Transactions&#45;&gt;\\Core\\Controller -->
<g id="edge10" class="edge">
<title>\\App\\Controllers\\Transactions&#45;&gt;\\Core\\Controller</title>
<path fill="none" stroke="#000000" d="M910.964,-388.6547C898.9386,-392.6496 887.3043,-398.9834 879.534,-409 758.9472,-564.4486 924.3681,-1128.108 815.534,-1292 788.9256,-1332.0693 737.6401,-1354.4148 698.5158,-1366.2153"/>
<polygon fill="none" stroke="#000000" points="697.4974,-1362.8662 688.8534,-1368.9926 699.4311,-1369.5938 697.4974,-1362.8662"/>
</g>
<!-- \\App\\Controllers\\Home -->
<g id="node25" class="node">
<title>\\App\\Controllers\\Home</title>
<polygon fill="none" stroke="#000000" points="987.034,-346 933.034,-346 933.034,-310 987.034,-310 987.034,-346"/>
<text text-anchor="middle" x="960.034" y="-325.2" font-family="Courier,monospace" font-size="11.00" fill="#000000">Home</text>
</g>
<!-- \\App\\Controllers\\Home&#45;&gt;\\Core\\Controller -->
<g id="edge11" class="edge">
<title>\\App\\Controllers\\Home&#45;&gt;\\Core\\Controller</title>
<path fill="none" stroke="#000000" d="M932.8084,-329.6027C914.7155,-332.2178 892.0592,-338.7843 879.534,-355 751.9532,-520.1723 930.6285,-1117.8965 815.534,-1292 789.009,-1332.1245 737.7116,-1354.4622 698.5619,-1366.2458"/>
<polygon fill="none" stroke="#000000" points="697.5404,-1362.8976 688.8927,-1369.0186 699.4701,-1369.6263 697.5404,-1362.8976"/>
</g>
<!-- \\App\\Controllers\\Categories -->
<g id="node26" class="node">
<title>\\App\\Controllers\\Categories</title>
<polygon fill="none" stroke="#000000" points="1002.034,-292 918.034,-292 918.034,-256 1002.034,-256 1002.034,-292"/>
<text text-anchor="middle" x="960.034" y="-271.2" font-family="Courier,monospace" font-size="11.00" fill="#000000">Categories</text>
</g>
<!-- \\App\\Controllers\\Categories&#45;&gt;\\Core\\Controller -->
<g id="edge12" class="edge">
<title>\\App\\Controllers\\Categories&#45;&gt;\\Core\\Controller</title>
<path fill="none" stroke="#000000" d="M917.6433,-278.62C903.3452,-282.3769 888.7031,-289.0837 879.534,-301 744.9576,-475.8979 936.8902,-1107.6829 815.534,-1292 788.9999,-1332.3003 737.4515,-1354.6451 698.2326,-1366.384"/>
<polygon fill="none" stroke="#000000" points="697.2073,-1363.0368 688.5501,-1369.1444 699.1265,-1369.7685 697.2073,-1363.0368"/>
</g>
<!-- \\App\\Controllers\\Accounts -->
<g id="node27" class="node">
<title>\\App\\Controllers\\Accounts</title>
<polygon fill="none" stroke="#000000" points="995.534,-238 924.534,-238 924.534,-202 995.534,-202 995.534,-238"/>
<text text-anchor="middle" x="960.034" y="-217.2" font-family="Courier,monospace" font-size="11.00" fill="#000000">Accounts</text>
</g>
<!-- \\App\\Controllers\\Accounts&#45;&gt;\\Core\\Controller -->
<g id="edge20" class="edge">
<title>\\App\\Controllers\\Accounts&#45;&gt;\\Core\\Controller</title>
<path fill="none" stroke="#000000" d="M924.304,-223.0457C908.0487,-226.3819 890.1185,-233.1968 879.534,-247 737.9608,-431.6252 943.1531,-1097.4677 815.534,-1292 789.0669,-1332.3444 737.5088,-1354.6827 698.2693,-1366.4081"/>
<polygon fill="none" stroke="#000000" points="697.2416,-1363.0616 688.5814,-1369.165 699.1575,-1369.7943 697.2416,-1363.0616"/>
</g>
<!-- \\App\\Extensions\\Transactions -->
<g id="node28" class="node">
<title>\\App\\Extensions\\Transactions</title>
<polygon fill="none" stroke="#000000" points="1009.034,-158 911.034,-158 911.034,-122 1009.034,-122 1009.034,-158"/>
<text text-anchor="middle" x="960.034" y="-137.2" font-family="Courier,monospace" font-size="11.00" fill="#000000">Transactions</text>
</g>
<!-- \\League\\Plates\\Extension\\ExtensionInterface -->
<g id="node36" class="node">
<title>\\League\\Plates\\Extension\\ExtensionInterface</title>
<ellipse fill="none" stroke="#000000" cx="646.549" cy="-18" rx="168.97" ry="18"/>
<text text-anchor="middle" x="646.549" y="-14.3" font-family="Times,serif" font-size="14.00" fill="#c0c0c0">\League\Plates\Extension\ExtensionInterface</text>
</g>
<!-- \\App\\Extensions\\Transactions&#45;&gt;\\League\\Plates\\Extension\\ExtensionInterface -->
<g id="edge22" class="edge">
<title>\\App\\Extensions\\Transactions&#45;&gt;\\League\\Plates\\Extension\\ExtensionInterface</title>
<path fill="none" stroke="#000000" stroke-dasharray="1,5" d="M938.6521,-121.6754C911.7924,-99.716 863.3985,-63.5656 815.534,-45 803.1636,-40.2018 789.9663,-36.256 776.6073,-33.0112"/>
<polygon fill="none" stroke="#000000" points="777.3908,-29.6001 766.8607,-30.7702 775.8222,-36.4221 777.3908,-29.6001"/>
</g>
<!-- \\Core\\Request -->
<g id="node29" class="node">
<title>\\Core\\Request</title>
<polygon fill="none" stroke="#000000" points="678.549,-1558 614.549,-1558 614.549,-1522 678.549,-1522 678.549,-1558"/>
<text text-anchor="middle" x="646.549" y="-1537.2" font-family="Courier,monospace" font-size="11.00" fill="#000000">Request</text>
</g>
<!-- \\Core\\View -->
<g id="node30" class="node">
<title>\\Core\\View</title>
<polygon fill="none" stroke="#000000" points="673.549,-1504 619.549,-1504 619.549,-1468 673.549,-1468 673.549,-1504"/>
<text text-anchor="middle" x="646.549" y="-1483.2" font-family="Courier,monospace" font-size="11.00" fill="#000000">View</text>
</g>
<!-- \\Core\\App -->
<g id="node31" class="node">
<title>\\Core\\App</title>
<polygon fill="none" stroke="#000000" points="673.549,-1450 619.549,-1450 619.549,-1414 673.549,-1414 673.549,-1450"/>
<text text-anchor="middle" x="646.549" y="-1429.2" font-family="Courier,monospace" font-size="11.00" fill="#000000">App</text>
</g>
</g>
</svg>
